<mxfile host="app.diagrams.net" agent="Mozilla/5.0 (X11; Linux x86_64) AppleWebKit/537.36 (KHTML, like Gecko) Chrome/134.0.0.0 Safari/537.36" version="28.2.8">
  <diagram name="Page-1" id="9dDk0zf2ElysKSQKNrrg">
    <mxGraphModel dx="1024" dy="666" grid="1" gridSize="10" guides="1" tooltips="1" connect="1" arrows="1" fold="1" page="1" pageScale="1" pageWidth="3300" pageHeight="2339" math="0" shadow="0">
      <root>
        <mxCell id="0" />
        <mxCell id="1" parent="0" />
        <mxCell id="KS-wqAkKazjO4-zXT2j7-1" value="Digitization" style="swimlane;fontStyle=0;childLayout=stackLayout;horizontal=1;startSize=26;strokeColor=#FFFAA0;strokeWidth=3;fillColor=none;horizontalStack=0;resizeParent=1;resizeParentMax=0;resizeLast=0;collapsible=1;marginBottom=0;whiteSpace=wrap;html=1;" parent="1" vertex="1">
          <mxGeometry x="720" y="430" width="150" height="52" as="geometry" />
        </mxCell>
        <mxCell id="KS-wqAkKazjO4-zXT2j7-2" value="Activity" style="text;strokeColor=#FFFAA0;strokeWidth=3;fillColor=none;align=center;verticalAlign=top;spacingLeft=4;spacingRight=4;overflow=hidden;rotatable=0;points=[[0,0.5],[1,0.5]];portConstraint=eastwest;whiteSpace=wrap;html=1;" parent="KS-wqAkKazjO4-zXT2j7-1" vertex="1">
          <mxGeometry y="26" width="150" height="26" as="geometry" />
        </mxCell>
        <mxCell id="KS-wqAkKazjO4-zXT2j7-3" value="Scanning" style="swimlane;fontStyle=0;childLayout=stackLayout;horizontal=1;startSize=26;strokeColor=#FFFAA0;strokeWidth=3;fillColor=none;horizontalStack=0;resizeParent=1;resizeParentMax=0;resizeLast=0;collapsible=1;marginBottom=0;whiteSpace=wrap;html=1;" parent="1" vertex="1">
          <mxGeometry x="1290" y="430" width="150" height="52" as="geometry" />
        </mxCell>
        <mxCell id="KS-wqAkKazjO4-zXT2j7-4" value="Activity" style="text;strokeColor=#FFFAA0;strokeWidth=3;fillColor=none;align=center;verticalAlign=top;spacingLeft=4;spacingRight=4;overflow=hidden;rotatable=0;points=[[0,0.5],[1,0.5]];portConstraint=eastwest;whiteSpace=wrap;html=1;" parent="KS-wqAkKazjO4-zXT2j7-3" vertex="1">
          <mxGeometry y="26" width="150" height="26" as="geometry" />
        </mxCell>
        <mxCell id="KS-wqAkKazjO4-zXT2j7-5" value="" style="endArrow=classic;html=1;rounded=0;entryX=-0.013;entryY=0;entryDx=0;entryDy=0;exitX=1.007;exitY=0;exitDx=0;exitDy=0;exitPerimeter=0;entryPerimeter=0;" parent="1" source="KS-wqAkKazjO4-zXT2j7-2" target="KS-wqAkKazjO4-zXT2j7-4" edge="1">
          <mxGeometry relative="1" as="geometry">
            <mxPoint x="1070" y="451.99800000000005" as="sourcePoint" />
            <mxPoint x="1280" y="461.99" as="targetPoint" />
          </mxGeometry>
        </mxCell>
        <mxCell id="KS-wqAkKazjO4-zXT2j7-6" value="has or had subevent" style="edgeLabel;resizable=0;html=1;;align=center;verticalAlign=middle;" parent="KS-wqAkKazjO4-zXT2j7-5" connectable="0" vertex="1">
          <mxGeometry relative="1" as="geometry" />
        </mxCell>
        <mxCell id="KS-wqAkKazjO4-zXT2j7-7" value="Parish register for Bratsberg church, 1938-1952" style="swimlane;fontStyle=0;childLayout=stackLayout;horizontal=1;startSize=26;strokeColor=#DAEEF3;strokeWidth=3;fillColor=none;horizontalStack=0;resizeParent=1;resizeParentMax=0;resizeLast=0;collapsible=1;marginBottom=0;whiteSpace=wrap;html=1;" parent="1" vertex="1">
          <mxGeometry x="940" y="960" width="290" height="48" as="geometry" />
        </mxCell>
        <mxCell id="KS-wqAkKazjO4-zXT2j7-8" value="Record" style="text;strokeColor=#DAEEF3;strokeWidth=3;fillColor=none;align=center;verticalAlign=top;spacingLeft=4;spacingRight=4;overflow=hidden;rotatable=0;points=[[0,0.5],[1,0.5]];portConstraint=eastwest;whiteSpace=wrap;html=1;" parent="KS-wqAkKazjO4-zXT2j7-7" vertex="1">
          <mxGeometry y="26" width="290" height="22" as="geometry" />
        </mxCell>
        <mxCell id="KS-wqAkKazjO4-zXT2j7-9" value="" style="endArrow=classic;html=1;rounded=0;exitX=1;exitY=0;exitDx=0;exitDy=0;entryX=0;entryY=1;entryDx=0;entryDy=0;" parent="1" source="KS-wqAkKazjO4-zXT2j7-14" target="HIHmw64CFz3xZAufGdiX-3" edge="1">
          <mxGeometry relative="1" as="geometry">
            <mxPoint x="950" y="630" as="sourcePoint" />
            <mxPoint x="1140" y="630" as="targetPoint" />
          </mxGeometry>
        </mxCell>
        <mxCell id="KS-wqAkKazjO4-zXT2j7-10" value="is or was affected by" style="edgeLabel;resizable=0;html=1;;align=center;verticalAlign=middle;" parent="KS-wqAkKazjO4-zXT2j7-9" connectable="0" vertex="1">
          <mxGeometry relative="1" as="geometry" />
        </mxCell>
        <mxCell id="KS-wqAkKazjO4-zXT2j7-11" value="" style="endArrow=classic;html=1;rounded=0;entryX=0;entryY=0;entryDx=0;entryDy=0;exitX=1;exitY=1;exitDx=0;exitDy=0;" parent="1" source="HIHmw64CFz3xZAufGdiX-3" target="KS-wqAkKazjO4-zXT2j7-20" edge="1">
          <mxGeometry relative="1" as="geometry">
            <mxPoint x="960" y="520.0000000000002" as="sourcePoint" />
            <mxPoint x="1130" y="520" as="targetPoint" />
          </mxGeometry>
        </mxCell>
        <mxCell id="KS-wqAkKazjO4-zXT2j7-12" value="results or resulted in" style="edgeLabel;resizable=0;html=1;;align=center;verticalAlign=middle;" parent="KS-wqAkKazjO4-zXT2j7-11" connectable="0" vertex="1">
          <mxGeometry relative="1" as="geometry" />
        </mxCell>
        <mxCell id="KS-wqAkKazjO4-zXT2j7-14" value="Original parish register for Bratsberg church, 1938-1952" style="swimlane;fontStyle=0;childLayout=stackLayout;horizontal=1;startSize=40;strokeColor=#F5DEB3;strokeWidth=2;fillColor=none;horizontalStack=0;resizeParent=1;resizeParentMax=0;resizeLast=0;collapsible=1;marginBottom=0;whiteSpace=wrap;html=1;" parent="1" vertex="1">
          <mxGeometry x="510" y="810" width="220" height="66" as="geometry" />
        </mxCell>
        <mxCell id="KS-wqAkKazjO4-zXT2j7-15" value="Instantiation&lt;div&gt;&lt;br&gt;&lt;/div&gt;" style="text;strokeColor=#F5DEB3;strokeWidth=2;fillColor=#F5DEB3;align=center;verticalAlign=top;spacingLeft=4;spacingRight=4;overflow=hidden;rotatable=0;points=[[0,0.5],[1,0.5]];portConstraint=eastwest;whiteSpace=wrap;html=1;" parent="KS-wqAkKazjO4-zXT2j7-14" vertex="1">
          <mxGeometry y="40" width="220" height="26" as="geometry" />
        </mxCell>
        <mxCell id="KS-wqAkKazjO4-zXT2j7-17" value="" style="endArrow=classic;html=1;rounded=0;entryX=1;entryY=1;entryDx=0;entryDy=0;exitX=0;exitY=0;exitDx=0;exitDy=0;" parent="1" source="KS-wqAkKazjO4-zXT2j7-7" target="KS-wqAkKazjO4-zXT2j7-14" edge="1">
          <mxGeometry relative="1" as="geometry">
            <mxPoint x="950" y="430" as="sourcePoint" />
            <mxPoint x="1140" y="430" as="targetPoint" />
          </mxGeometry>
        </mxCell>
        <mxCell id="KS-wqAkKazjO4-zXT2j7-18" value="has or had instantiation" style="edgeLabel;resizable=0;html=1;;align=center;verticalAlign=middle;" parent="KS-wqAkKazjO4-zXT2j7-17" connectable="0" vertex="1">
          <mxGeometry relative="1" as="geometry" />
        </mxCell>
        <mxCell id="KS-wqAkKazjO4-zXT2j7-20" value="Digitization of parish register for Bratsberg church, 1938-1952" style="swimlane;fontStyle=0;childLayout=stackLayout;horizontal=1;startSize=40;strokeColor=#F5DEB3;strokeWidth=2;fillColor=none;horizontalStack=0;resizeParent=1;resizeParentMax=0;resizeLast=0;collapsible=1;marginBottom=0;whiteSpace=wrap;html=1;" parent="1" vertex="1">
          <mxGeometry x="1401" y="806" width="249" height="66" as="geometry" />
        </mxCell>
        <mxCell id="KS-wqAkKazjO4-zXT2j7-21" value="Instantiation&lt;div&gt;&lt;br&gt;&lt;/div&gt;" style="text;strokeColor=#F5DEB3;strokeWidth=2;fillColor=#F5DEB3;align=center;verticalAlign=top;spacingLeft=4;spacingRight=4;overflow=hidden;rotatable=0;points=[[0,0.5],[1,0.5]];portConstraint=eastwest;whiteSpace=wrap;html=1;" parent="KS-wqAkKazjO4-zXT2j7-20" vertex="1">
          <mxGeometry y="40" width="249" height="26" as="geometry" />
        </mxCell>
        <mxCell id="HIHmw64CFz3xZAufGdiX-1" value="" style="endArrow=classic;html=1;rounded=0;entryX=0;entryY=1;entryDx=0;entryDy=0;exitX=1;exitY=0;exitDx=0;exitDy=0;" parent="1" source="KS-wqAkKazjO4-zXT2j7-7" target="KS-wqAkKazjO4-zXT2j7-20" edge="1">
          <mxGeometry relative="1" as="geometry">
            <mxPoint x="1135" y="1002.9860000000001" as="sourcePoint" />
            <mxPoint x="1478.045" y="872.0020000000002" as="targetPoint" />
          </mxGeometry>
        </mxCell>
        <mxCell id="HIHmw64CFz3xZAufGdiX-2" value="has or had instantiation" style="edgeLabel;resizable=0;html=1;;align=center;verticalAlign=middle;" parent="HIHmw64CFz3xZAufGdiX-1" connectable="0" vertex="1">
          <mxGeometry relative="1" as="geometry" />
        </mxCell>
        <mxCell id="HIHmw64CFz3xZAufGdiX-3" value="Digitizing of the parish register for Bratsberg church, 1938-1952" style="swimlane;fontStyle=0;childLayout=stackLayout;horizontal=1;startSize=40;strokeColor=#FFFAA0;strokeWidth=3;fillColor=none;horizontalStack=0;resizeParent=1;resizeParentMax=0;resizeLast=0;collapsible=1;marginBottom=0;whiteSpace=wrap;html=1;" parent="1" vertex="1">
          <mxGeometry x="955" y="660" width="250" height="66" as="geometry" />
        </mxCell>
        <mxCell id="HIHmw64CFz3xZAufGdiX-4" value="Activity" style="text;strokeColor=#FFFAA0;strokeWidth=3;fillColor=#FFFFFF;align=center;verticalAlign=top;spacingLeft=4;spacingRight=4;overflow=hidden;rotatable=0;points=[[0,0.5],[1,0.5]];portConstraint=eastwest;whiteSpace=wrap;html=1;" parent="HIHmw64CFz3xZAufGdiX-3" vertex="1">
          <mxGeometry y="40" width="250" height="26" as="geometry" />
        </mxCell>
        <mxCell id="HIHmw64CFz3xZAufGdiX-5" value="" style="endArrow=classic;html=1;rounded=0;entryX=0.75;entryY=0;entryDx=0;entryDy=0;exitX=0.6;exitY=1;exitDx=0;exitDy=0;exitPerimeter=0;" parent="1" source="KS-wqAkKazjO4-zXT2j7-4" target="HIHmw64CFz3xZAufGdiX-3" edge="1">
          <mxGeometry relative="1" as="geometry">
            <mxPoint x="1079.5" y="610" as="sourcePoint" />
            <mxPoint x="1079.5" y="690" as="targetPoint" />
          </mxGeometry>
        </mxCell>
        <mxCell id="HIHmw64CFz3xZAufGdiX-6" value="has or had subevent" style="edgeLabel;resizable=0;html=1;;align=center;verticalAlign=middle;" parent="HIHmw64CFz3xZAufGdiX-5" connectable="0" vertex="1">
          <mxGeometry relative="1" as="geometry" />
        </mxCell>
        <mxCell id="HIHmw64CFz3xZAufGdiX-7" value="" style="endArrow=classic;html=1;rounded=0;exitX=1;exitY=0.5;exitDx=0;exitDy=0;entryX=0;entryY=0.5;entryDx=0;entryDy=0;" parent="1" source="KS-wqAkKazjO4-zXT2j7-14" target="KS-wqAkKazjO4-zXT2j7-20" edge="1">
          <mxGeometry relative="1" as="geometry">
            <mxPoint x="920" y="845" as="sourcePoint" />
            <mxPoint x="1140" y="845" as="targetPoint" />
          </mxGeometry>
        </mxCell>
        <mxCell id="HIHmw64CFz3xZAufGdiX-8" value="has or had derived instantiation" style="edgeLabel;resizable=0;html=1;;align=center;verticalAlign=middle;" parent="HIHmw64CFz3xZAufGdiX-7" connectable="0" vertex="1">
          <mxGeometry relative="1" as="geometry" />
        </mxCell>
        <mxCell id="JKg9k7a9o7TrxqdrPF9H-1" value="" style="endArrow=classic;html=1;rounded=0;exitX=1;exitY=0.25;exitDx=0;exitDy=0;entryX=-0.006;entryY=0.024;entryDx=0;entryDy=0;entryPerimeter=0;" parent="1" source="HIHmw64CFz3xZAufGdiX-3" target="JKg9k7a9o7TrxqdrPF9H-4" edge="1">
          <mxGeometry relative="1" as="geometry">
            <mxPoint x="1210" y="610" as="sourcePoint" />
            <mxPoint x="1490" y="612" as="targetPoint" />
          </mxGeometry>
        </mxCell>
        <mxCell id="JKg9k7a9o7TrxqdrPF9H-2" value="is or was performed by" style="edgeLabel;resizable=0;html=1;;align=center;verticalAlign=middle;" parent="JKg9k7a9o7TrxqdrPF9H-1" connectable="0" vertex="1">
          <mxGeometry relative="1" as="geometry" />
        </mxCell>
        <mxCell id="JKg9k7a9o7TrxqdrPF9H-3" value="Regional State Archives in Trondheim" style="swimlane;fontStyle=0;childLayout=stackLayout;horizontal=1;startSize=26;strokeColor=#C6D9F1;strokeWidth=3;fillColor=none;horizontalStack=0;resizeParent=1;resizeParentMax=0;resizeLast=0;collapsible=1;marginBottom=0;whiteSpace=wrap;html=1;" parent="1" vertex="1">
          <mxGeometry x="1480" y="630" width="280" height="52" as="geometry" />
        </mxCell>
        <mxCell id="JKg9k7a9o7TrxqdrPF9H-4" value="Corporate Body" style="text;strokeColor=#C6D9F1;strokeWidth=3;fillColor=none;align=center;verticalAlign=top;spacingLeft=4;spacingRight=4;overflow=hidden;rotatable=0;points=[[0,0.5],[1,0.5]];portConstraint=eastwest;whiteSpace=wrap;html=1;" parent="JKg9k7a9o7TrxqdrPF9H-3" vertex="1">
          <mxGeometry y="26" width="280" height="26" as="geometry" />
        </mxCell>
        <mxCell id="JKg9k7a9o7TrxqdrPF9H-5" value="" style="endArrow=classic;html=1;rounded=0;exitX=0;exitY=0.25;exitDx=0;exitDy=0;entryX=1;entryY=1;entryDx=0;entryDy=0;" parent="1" source="HIHmw64CFz3xZAufGdiX-3" target="JKg9k7a9o7TrxqdrPF9H-7" edge="1">
          <mxGeometry relative="1" as="geometry">
            <mxPoint x="820" y="620.0000000000002" as="sourcePoint" />
            <mxPoint x="800" y="550" as="targetPoint" />
          </mxGeometry>
        </mxCell>
        <mxCell id="JKg9k7a9o7TrxqdrPF9H-6" value="occurred at date" style="edgeLabel;resizable=0;html=1;;align=center;verticalAlign=middle;" parent="JKg9k7a9o7TrxqdrPF9H-5" connectable="0" vertex="1">
          <mxGeometry relative="1" as="geometry" />
        </mxCell>
        <mxCell id="JKg9k7a9o7TrxqdrPF9H-7" value="2005-11-02" style="swimlane;fontStyle=0;childLayout=stackLayout;horizontal=1;startSize=26;strokeColor=#DDD9C3;strokeWidth=2;fillColor=none;horizontalStack=0;resizeParent=1;resizeParentMax=0;resizeLast=0;collapsible=1;marginBottom=0;whiteSpace=wrap;html=1;" parent="1" vertex="1">
          <mxGeometry x="590" y="540" width="110" height="52" as="geometry" />
        </mxCell>
        <mxCell id="JKg9k7a9o7TrxqdrPF9H-8" value="Date" style="text;strokeColor=#DDD9C3;strokeWidth=2;fillColor=#DDD9C3;align=center;verticalAlign=top;spacingLeft=4;spacingRight=4;overflow=hidden;rotatable=0;points=[[0,0.5],[1,0.5]];portConstraint=eastwest;whiteSpace=wrap;html=1;" parent="JKg9k7a9o7TrxqdrPF9H-7" vertex="1">
          <mxGeometry y="26" width="110" height="26" as="geometry" />
        </mxCell>
        <mxCell id="JKg9k7a9o7TrxqdrPF9H-9" value="Pages affected by personal information restrictions should be blocked" style="swimlane;fontStyle=0;childLayout=stackLayout;horizontal=1;startSize=40;strokeColor=#EAF1DD;strokeWidth=2;fillColor=none;horizontalStack=0;resizeParent=1;resizeParentMax=0;resizeLast=0;collapsible=1;marginBottom=0;whiteSpace=wrap;html=1;" parent="1" vertex="1">
          <mxGeometry x="1790" y="951" width="220" height="66" as="geometry" />
        </mxCell>
        <mxCell id="JKg9k7a9o7TrxqdrPF9H-10" value="Rule&lt;div&gt;&lt;br&gt;&lt;/div&gt;" style="text;strokeColor=#EAF1DD;strokeWidth=2;fillColor=#EAF1DD;align=center;verticalAlign=top;spacingLeft=4;spacingRight=4;overflow=hidden;rotatable=0;points=[[0,0.5],[1,0.5]];portConstraint=eastwest;whiteSpace=wrap;html=1;" parent="JKg9k7a9o7TrxqdrPF9H-9" vertex="1">
          <mxGeometry y="40" width="220" height="26" as="geometry" />
        </mxCell>
        <mxCell id="JKg9k7a9o7TrxqdrPF9H-11" value="" style="endArrow=classic;html=1;rounded=0;exitX=1;exitY=1;exitDx=0;exitDy=0;entryX=0;entryY=0;entryDx=0;entryDy=0;" parent="1" source="KS-wqAkKazjO4-zXT2j7-20" target="JKg9k7a9o7TrxqdrPF9H-9" edge="1">
          <mxGeometry relative="1" as="geometry">
            <mxPoint x="1550" y="780" as="sourcePoint" />
            <mxPoint x="1670" y="690" as="targetPoint" />
          </mxGeometry>
        </mxCell>
        <mxCell id="JKg9k7a9o7TrxqdrPF9H-12" value="is or was regulated by" style="edgeLabel;resizable=0;html=1;;align=center;verticalAlign=middle;" parent="JKg9k7a9o7TrxqdrPF9H-11" connectable="0" vertex="1">
          <mxGeometry relative="1" as="geometry" />
        </mxCell>
        <mxCell id="-po9a9koqytGyxwWgbJC-1" value="" style="endArrow=classic;html=1;rounded=0;entryX=0.25;entryY=0;entryDx=0;entryDy=0;exitX=0.54;exitY=1.115;exitDx=0;exitDy=0;exitPerimeter=0;" parent="1" source="KS-wqAkKazjO4-zXT2j7-2" target="HIHmw64CFz3xZAufGdiX-3" edge="1">
          <mxGeometry relative="1" as="geometry">
            <mxPoint x="1210" y="562" as="sourcePoint" />
            <mxPoint x="1030" y="711" as="targetPoint" />
          </mxGeometry>
        </mxCell>
        <mxCell id="-po9a9koqytGyxwWgbJC-2" value="has or had subevent" style="edgeLabel;resizable=0;html=1;;align=center;verticalAlign=middle;" parent="-po9a9koqytGyxwWgbJC-1" connectable="0" vertex="1">
          <mxGeometry relative="1" as="geometry" />
        </mxCell>
        <mxCell id="Rx7ATSWB7nXu5Q-0kk-8-1" value="Personal information restrictions" style="swimlane;fontStyle=0;childLayout=stackLayout;horizontal=1;startSize=26;strokeColor=#EAF1DD;strokeWidth=2;fillColor=none;horizontalStack=0;resizeParent=1;resizeParentMax=0;resizeLast=0;collapsible=1;marginBottom=0;whiteSpace=wrap;html=1;" parent="1" vertex="1">
          <mxGeometry x="1400" y="1118" width="190" height="52" as="geometry" />
        </mxCell>
        <mxCell id="Rx7ATSWB7nXu5Q-0kk-8-2" value="Rule&lt;div&gt;&lt;br&gt;&lt;/div&gt;" style="text;strokeColor=#EAF1DD;strokeWidth=2;fillColor=#EAF1DD;align=center;verticalAlign=top;spacingLeft=4;spacingRight=4;overflow=hidden;rotatable=0;points=[[0,0.5],[1,0.5]];portConstraint=eastwest;whiteSpace=wrap;html=1;" parent="Rx7ATSWB7nXu5Q-0kk-8-1" vertex="1">
          <mxGeometry y="26" width="190" height="26" as="geometry" />
        </mxCell>
        <mxCell id="Rx7ATSWB7nXu5Q-0kk-8-3" value="" style="endArrow=classic;html=1;rounded=0;exitX=1.003;exitY=1.091;exitDx=0;exitDy=0;entryX=0;entryY=0;entryDx=0;entryDy=0;exitPerimeter=0;" parent="1" source="KS-wqAkKazjO4-zXT2j7-8" target="Rx7ATSWB7nXu5Q-0kk-8-1" edge="1">
          <mxGeometry relative="1" as="geometry">
            <mxPoint x="1270" y="1020" as="sourcePoint" />
            <mxPoint x="1520" y="1164" as="targetPoint" />
          </mxGeometry>
        </mxCell>
        <mxCell id="Rx7ATSWB7nXu5Q-0kk-8-4" value="is or was regulated by" style="edgeLabel;resizable=0;html=1;;align=center;verticalAlign=middle;" parent="Rx7ATSWB7nXu5Q-0kk-8-3" connectable="0" vertex="1">
          <mxGeometry relative="1" as="geometry" />
        </mxCell>
        <mxCell id="Rx7ATSWB7nXu5Q-0kk-8-5" value="" style="endArrow=classic;html=1;rounded=0;exitX=1;exitY=0;exitDx=0;exitDy=0;entryX=0;entryY=1;entryDx=0;entryDy=0;" parent="1" source="Rx7ATSWB7nXu5Q-0kk-8-1" target="JKg9k7a9o7TrxqdrPF9H-9" edge="1">
          <mxGeometry relative="1" as="geometry">
            <mxPoint x="1530" y="1200" as="sourcePoint" />
            <mxPoint x="1850" y="1090" as="targetPoint" />
          </mxGeometry>
        </mxCell>
        <mxCell id="Rx7ATSWB7nXu5Q-0kk-8-6" value="is rule associated with" style="edgeLabel;resizable=0;html=1;;align=center;verticalAlign=middle;" parent="Rx7ATSWB7nXu5Q-0kk-8-5" connectable="0" vertex="1">
          <mxGeometry relative="1" as="geometry" />
        </mxCell>
        <mxCell id="Rx7ATSWB7nXu5Q-0kk-8-7" value="" style="endArrow=classic;html=1;rounded=0;exitX=0;exitY=1;exitDx=0;exitDy=0;" parent="1" source="KS-wqAkKazjO4-zXT2j7-14" target="Rx7ATSWB7nXu5Q-0kk-8-9" edge="1">
          <mxGeometry relative="1" as="geometry">
            <mxPoint x="680" y="1054" as="sourcePoint" />
            <mxPoint x="630" y="990" as="targetPoint" />
          </mxGeometry>
        </mxCell>
        <mxCell id="Rx7ATSWB7nXu5Q-0kk-8-8" value="representation type" style="edgeLabel;resizable=0;html=1;;align=center;verticalAlign=middle;" parent="Rx7ATSWB7nXu5Q-0kk-8-7" connectable="0" vertex="1">
          <mxGeometry relative="1" as="geometry" />
        </mxCell>
        <mxCell id="Rx7ATSWB7nXu5Q-0kk-8-9" value="Analogue textual" style="html=1;whiteSpace=wrap;rounded=1;arcSize=50;" parent="1" vertex="1">
          <mxGeometry x="300" y="990" width="110" height="50" as="geometry" />
        </mxCell>
        <mxCell id="Rx7ATSWB7nXu5Q-0kk-8-10" value="" style="endArrow=classic;html=1;rounded=0;exitX=1;exitY=0;exitDx=0;exitDy=0;entryX=0.086;entryY=0.83;entryDx=0;entryDy=0;entryPerimeter=0;" parent="1" source="KS-wqAkKazjO4-zXT2j7-20" target="Rx7ATSWB7nXu5Q-0kk-8-12" edge="1">
          <mxGeometry relative="1" as="geometry">
            <mxPoint x="1640" y="700" as="sourcePoint" />
            <mxPoint x="1770" y="740" as="targetPoint" />
          </mxGeometry>
        </mxCell>
        <mxCell id="Rx7ATSWB7nXu5Q-0kk-8-11" value="representation type" style="edgeLabel;resizable=0;html=1;;align=center;verticalAlign=middle;" parent="Rx7ATSWB7nXu5Q-0kk-8-10" connectable="0" vertex="1">
          <mxGeometry relative="1" as="geometry" />
        </mxCell>
        <mxCell id="Rx7ATSWB7nXu5Q-0kk-8-12" value="Digital textual" style="html=1;whiteSpace=wrap;rounded=1;arcSize=50;" parent="1" vertex="1">
          <mxGeometry x="1800" y="698" width="110" height="50" as="geometry" />
        </mxCell>
        <mxCell id="Rx7ATSWB7nXu5Q-0kk-8-13" value="" style="endArrow=classic;html=1;rounded=0;exitX=0;exitY=0;exitDx=0;exitDy=0;" parent="1" source="KS-wqAkKazjO4-zXT2j7-14" target="Rx7ATSWB7nXu5Q-0kk-8-15" edge="1">
          <mxGeometry relative="1" as="geometry">
            <mxPoint x="573.75" y="698" as="sourcePoint" />
            <mxPoint x="550" y="730" as="targetPoint" />
          </mxGeometry>
        </mxCell>
        <mxCell id="Rx7ATSWB7nXu5Q-0kk-8-14" value="carrier type" style="edgeLabel;resizable=0;html=1;;align=center;verticalAlign=middle;" parent="Rx7ATSWB7nXu5Q-0kk-8-13" connectable="0" vertex="1">
          <mxGeometry relative="1" as="geometry" />
        </mxCell>
        <mxCell id="Rx7ATSWB7nXu5Q-0kk-8-15" value="Paper, hard-bound book" style="html=1;whiteSpace=wrap;rounded=1;arcSize=50;" parent="1" vertex="1">
          <mxGeometry x="300" y="640" width="110" height="50" as="geometry" />
        </mxCell>
        <mxCell id="Rx7ATSWB7nXu5Q-0kk-8-16" value="" style="endArrow=classic;html=1;rounded=0;exitX=-0.004;exitY=1.01;exitDx=0;exitDy=0;exitPerimeter=0;entryX=0.893;entryY=0.067;entryDx=0;entryDy=0;entryPerimeter=0;" parent="1" source="KS-wqAkKazjO4-zXT2j7-8" target="Rx7ATSWB7nXu5Q-0kk-8-18" edge="1">
          <mxGeometry relative="1" as="geometry">
            <mxPoint x="930" y="1070" as="sourcePoint" />
            <mxPoint x="770" y="1080" as="targetPoint" />
          </mxGeometry>
        </mxCell>
        <mxCell id="Rx7ATSWB7nXu5Q-0kk-8-17" value="documentary form type" style="edgeLabel;resizable=0;html=1;;align=center;verticalAlign=middle;" parent="Rx7ATSWB7nXu5Q-0kk-8-16" connectable="0" vertex="1">
          <mxGeometry relative="1" as="geometry" />
        </mxCell>
        <mxCell id="Rx7ATSWB7nXu5Q-0kk-8-18" value="Parish register" style="html=1;whiteSpace=wrap;rounded=1;arcSize=50;" parent="1" vertex="1">
          <mxGeometry x="700" y="1090" width="110" height="50" as="geometry" />
        </mxCell>
        <mxCell id="Rx7ATSWB7nXu5Q-0kk-8-19" value="" style="endArrow=classic;html=1;rounded=0;" parent="1" target="Rx7ATSWB7nXu5Q-0kk-8-21" edge="1">
          <mxGeometry relative="1" as="geometry">
            <mxPoint x="1080" y="1010" as="sourcePoint" />
            <mxPoint x="1080" y="1130" as="targetPoint" />
          </mxGeometry>
        </mxCell>
        <mxCell id="Rx7ATSWB7nXu5Q-0kk-8-20" value="content type" style="edgeLabel;resizable=0;html=1;;align=center;verticalAlign=middle;" parent="Rx7ATSWB7nXu5Q-0kk-8-19" connectable="0" vertex="1">
          <mxGeometry relative="1" as="geometry" />
        </mxCell>
        <mxCell id="Rx7ATSWB7nXu5Q-0kk-8-21" value="Structured (tabular) text" style="html=1;whiteSpace=wrap;rounded=1;arcSize=50;" parent="1" vertex="1">
          <mxGeometry x="1025" y="1120" width="110" height="50" as="geometry" />
        </mxCell>
        <mxCell id="Rx7ATSWB7nXu5Q-0kk-8-22" value="National Archives of Norway" style="swimlane;fontStyle=0;childLayout=stackLayout;horizontal=1;startSize=26;strokeColor=#C6D9F1;strokeWidth=3;fillColor=none;horizontalStack=0;resizeParent=1;resizeParentMax=0;resizeLast=0;collapsible=1;marginBottom=0;whiteSpace=wrap;html=1;" parent="1" vertex="1">
          <mxGeometry x="1480" y="470" width="280" height="52" as="geometry" />
        </mxCell>
        <mxCell id="Rx7ATSWB7nXu5Q-0kk-8-23" value="Corporate Body" style="text;strokeColor=#C6D9F1;strokeWidth=3;fillColor=none;align=center;verticalAlign=top;spacingLeft=4;spacingRight=4;overflow=hidden;rotatable=0;points=[[0,0.5],[1,0.5]];portConstraint=eastwest;whiteSpace=wrap;html=1;" parent="Rx7ATSWB7nXu5Q-0kk-8-22" vertex="1">
          <mxGeometry y="26" width="280" height="26" as="geometry" />
        </mxCell>
        <mxCell id="Rx7ATSWB7nXu5Q-0kk-8-24" value="" style="endArrow=classic;html=1;rounded=0;exitX=0.537;exitY=-0.034;exitDx=0;exitDy=0;exitPerimeter=0;" parent="1" source="JKg9k7a9o7TrxqdrPF9H-3" edge="1">
          <mxGeometry relative="1" as="geometry">
            <mxPoint x="1350" y="612" as="sourcePoint" />
            <mxPoint x="1630" y="520" as="targetPoint" />
          </mxGeometry>
        </mxCell>
        <mxCell id="Rx7ATSWB7nXu5Q-0kk-8-25" value="is or was part of" style="edgeLabel;resizable=0;html=1;;align=center;verticalAlign=middle;" parent="Rx7ATSWB7nXu5Q-0kk-8-24" connectable="0" vertex="1">
          <mxGeometry relative="1" as="geometry" />
        </mxCell>
        <mxCell id="ULqKuVQ_MxJ6X-Uj9y9O-1" value="" style="endArrow=classic;html=1;rounded=0;exitX=0.5;exitY=0;exitDx=0;exitDy=0;" edge="1" parent="1" source="HIHmw64CFz3xZAufGdiX-3" target="ULqKuVQ_MxJ6X-Uj9y9O-3">
          <mxGeometry relative="1" as="geometry">
            <mxPoint x="1100" y="630" as="sourcePoint" />
            <mxPoint x="1080" y="580" as="targetPoint" />
          </mxGeometry>
        </mxCell>
        <mxCell id="ULqKuVQ_MxJ6X-Uj9y9O-2" value="activity type" style="edgeLabel;resizable=0;html=1;;align=center;verticalAlign=middle;" connectable="0" vertex="1" parent="ULqKuVQ_MxJ6X-Uj9y9O-1">
          <mxGeometry relative="1" as="geometry" />
        </mxCell>
        <mxCell id="ULqKuVQ_MxJ6X-Uj9y9O-3" value="Scanning" style="html=1;whiteSpace=wrap;rounded=1;arcSize=50;" vertex="1" parent="1">
          <mxGeometry x="1025" y="522" width="110" height="50" as="geometry" />
        </mxCell>
      </root>
    </mxGraphModel>
  </diagram>
</mxfile>
